- 
http://www.Speed.Cd      fast  and The Hottest Private Tracker on the net

(((--Submit for invite!!--)))

Please Seed back to make the speed Faster!!!

------------------nfo--------------------------
-








































          
          
              
              
                    
                    
                    
                    
Poster:
[img]http://cf2.imgobject.com/t/p/w500/drI7GrwMyqXonKsr0i6pIKpTbHc.jpg[/img]

IMDB Link: 
http://www.imdb.com/title/tt1185416

Description:
After fishing out coins from a water fountain in Italy, cynical New Yorker Beth Harper finds herself being wooed by several ardent suitors. As she deals with the attention, Beth tries to figure out whether a charming reporter really loves her.

General
Complete name                    : When.In.Rome.2010.BDRip.x264.AC3-SiC.mkv
Format                           : Matroska
Format version                   : Version 2
File size                        : 1.37 GiB
Duration                         : 1h 30mn
Overall bit rate                 : 2 160 Kbps
Writing library                  : libmkv 0.6.4.1

Video
ID                               : 1
Format                           : AVC
Format/Info                      : Advanced Video Codec
Format profile                   : High@L3.0
Format settings, CABAC           : Yes
Format settings, ReFrames        : 4 frames
Codec ID                         : V_MPEG4/ISO/AVC
Duration                         : 1h 30mn
Bit rate                         : 1 771 Kbps
Width                            : 720 pixels
Height                           : 304 pixels
Display aspect ratio             : 2.35:1
Frame rate mode                  : Variable
Frame rate                       : 23.976 fps
Color space                      : YUV
Chroma subsampling               : 4:2:0
Bit depth                        : 8 bits
Scan type                        : Progressive
Bits/(Pixel*Frame)               : 0.337
Stream size                      : 1.10 GiB (80%)
Writing library                  : x264 core 112
Language                         : English
Default                          : Yes
Forced                           : No

Audio
ID                               : 2
Format                           : AC-3
Format/Info                      : Audio Coding 3
Mode extension                   : CM (complete main)
Codec ID                         : A_AC3
Duration                         : 1h 30mn
Bit rate mode                    : Constant
Bit rate                         : 384 Kbps
Channel(s)                       : 6 channels
Channel positions                : Front: L C R, Side: L R, LFE
Sampling rate                    : 48.0 KHz
Bit depth                        : 16 bits
Compression mode                 : Lossy
Stream size                      : 249 MiB (18%)
Language                         : English
Default                          : Yes
Forced                           : No

Screenshots:
[IMG]http://img600.imageshack.us/img600/1192/vlcsnap2011121412h06m28.png[/IMG]
[IMG]http://img40.imageshack.us/img40/9050/vlcsnap2011121412h04m37.png[/IMG]
[IMG]http://img205.imageshack.us/img205/6370/vlcsnap2011121412h04m47.png[/IMG]
[IMG]http://img10.imageshack.us/img10/3121/vlcsnap2011121412h03m43.png[/IMG]
[IMG]http://img205.imageshack.us/img205/2764/vlcsnap2011121412h04m54.png[/IMG]
[IMG]http://img830.imageshack.us/img830/4448/vlcsnap2011121412h06m57.png[/IMG]
[IMG]http://img580.imageshack.us/img580/2721/vlcsnap2011121412h07m25.png[/IMG]
[IMG]http://img845.imageshack.us/img845/5553/vlcsnap2011121412h08m52.png[/IMG]

Note: Usual Stuff, very nice rip ;)

Source:  Ours

Enjoy!

Respects to T00NG0D, ELEKTRI4KA, PA, YeFsTe, Box, MrRep and everyone in the struggle...